<svg xmlns="http://www.w3.org/2000/svg" fill="none" viewBox="-0.5 -0.5 24 24" height="24" width="24" id="Dark-Mode--Streamline-Outlined----Material-Symbols.svg">
  <path fill="#ffffff" d="M11.5 20.125C9.104166666666668 20.125 7.067708333333334 19.286458333333336 5.390625 17.609375C3.713541666666667 15.932291666666668 2.875 13.895833333333334 2.875 11.5C2.875 9.104166666666668 3.713541666666667 7.067708333333334 5.390625 5.390625C7.067708333333334 3.713541666666667 9.104166666666668 2.875 11.5 2.875C11.62779375 2.875 11.763541666666667 2.8789914583333336 11.907291666666667 2.886979166666667C12.051041666666666 2.894966875 12.23470625 2.906946041666667 12.458333333333334 2.9229166666666666C11.883333333333335 3.434029375 11.436127083333334 4.064928958333334 11.116666666666667 4.815625000000001C10.79720625 5.566335416666667 10.6375 6.356960416666667 10.6375 7.1875C10.6375 8.625 11.140625 9.846875 12.146875000000001 10.853125C13.153125 11.859375 14.375 12.3625 15.8125 12.3625C16.643039583333334 12.3625 17.433664583333332 12.214772916666668 18.184375000000003 11.919270833333334C18.935085416666666 11.62376875 19.565956250000003 11.2125 20.077083333333334 10.685416666666667C20.093039583333336 10.877083333333333 20.105018750000003 11.0328125 20.113020833333334 11.152604166666666C20.121022916666668 11.272395833333333 20.125 11.388210416666666 20.125 11.5C20.125 13.895833333333334 19.286458333333336 15.932291666666668 17.609375 17.609375C15.932291666666668 19.286458333333336 13.895833333333334 20.125 11.5 20.125ZM11.5 18.6875C13.24095625 18.6875 14.758333333333335 18.1484375 16.052083333333336 17.0703125C17.345833333333335 15.9921875 18.152414583333332 14.726372916666667 18.471875 13.272916666666667C18.07258541666667 13.448627083333335 17.643970833333334 13.580397916666668 17.186031250000003 13.668229166666666C16.728283333333334 13.756060416666667 16.270439583333335 13.8 15.8125 13.8C13.980645833333334 13.8 12.420622916666666 13.155856250000001 11.132479166666668 11.867520833333334C9.84414375 10.579377083333334 9.2 9.019354166666668 9.2 7.1875C9.2 6.804166666666666 9.239914583333334 6.392897916666667 9.319791666666667 5.953645833333334C9.399668750000002 5.51439375 9.543418749999999 5.01529375 9.751041666666667 4.456250000000001C8.185747916666667 4.8875 6.888020833333334 5.761979166666667 5.8578125 7.0796875C4.827604166666666 8.397395833333333 4.3125 9.870833333333334 4.3125 11.5C4.3125 13.49654375 5.01126875 15.193560416666667 6.408854166666667 16.591145833333336C7.806439583333333 17.98873125 9.503456250000001 18.6875 11.5 18.6875Z" stroke-width="1"></path>
</svg>