<svg viewBox="-0.5 -0.5 20 20" fill="none" xmlns="http://www.w3.org/2000/svg" id="Linkedin--Streamline-Unicons.svg" height="20" width="20"><desc>Linkedin Streamline Icon: https://streamlinehq.com</desc><path d="M17.385475 0.19015833333333335H1.6145250000000002C1.4372708333333333 0.18762500000000001 1.2612041666666667 0.22016250000000004 1.0964583333333335 0.28571250000000004 0.9317916666666668 0.35134166666666666 0.7816125 0.4487166666666667 0.6544708333333333 0.5722958333333333 0.5274083333333334 0.6959541666666668 0.4259166666666667 0.8433625 0.3558541666666667 1.0062083333333334c-0.07014166666666667 0.16284583333333336 -0.10742916666666667 0.33796250000000005 -0.10988333333333335 0.5152166666666668v15.957150000000002c0.002454166666666667 0.17725416666666668 0.03974166666666667 0.35237083333333336 0.10988333333333335 0.5152166666666668s0.17155416666666667 0.3102541666666667 0.2986166666666667 0.4339125000000001c0.12714166666666668 0.12365833333333334 0.27732083333333335 0.22103333333333336 0.44198750000000003 0.28658333333333336 0.16474583333333334 0.06562916666666667 0.3408125 0.09808750000000001 0.5180666666666667 0.09555416666666668h15.770950000000001c0.17725416666666668 0.0025333333333333336 0.35332083333333336 -0.029925000000000004 0.5179875 -0.09555416666666668 0.164825 -0.06555000000000001 0.314925 -0.16292500000000001 0.4420666666666667 -0.28658333333333336 0.12706250000000002 -0.12365833333333334 0.2285541666666667 -0.27114583333333336 0.2986166666666667 -0.4339125000000001 0.07014166666666667 -0.16284583333333336 0.10742916666666667 -0.33796250000000005 0.10988333333333335 -0.5152166666666668V1.521425c-0.002454166666666667 -0.17725416666666668 -0.03974166666666667 -0.3522916666666667 -0.10988333333333335 -0.5152166666666668 -0.0700625 -0.16284583333333336 -0.17155416666666667 -0.3102541666666667 -0.2986166666666667 -0.4339125000000001 -0.12714166666666668 -0.12357916666666667 -0.2772416666666667 -0.22103333333333336 -0.4420666666666667 -0.28658333333333336 -0.16466666666666668 -0.06555000000000001 -0.3407333333333334 -0.09808750000000001 -0.5179875 -0.09555416666666668ZM5.859837500000001 15.77482916666667h-2.793V7.3959875h2.793v8.378841666666668ZM4.463337500000001 6.222895833333334c-0.38514583333333335 0 -0.7545375000000001 -0.15295000000000003 -1.02695 -0.42536250000000003 -0.2723333333333333 -0.2723333333333333 -0.42536250000000003 -0.6417250000000001 -0.42536250000000003 -1.02695 0 -0.38514583333333335 0.1530291666666667 -0.7546166666666668 0.42536250000000003 -1.02695 0.27241250000000006 -0.27241250000000006 0.6418041666666667 -0.42536250000000003 1.02695 -0.42536250000000003 0.2045666666666667 -0.023195833333333336 0.41166666666666674 -0.002929166666666667 0.6078416666666667 0.05945416666666667 0.19617500000000002 0.06238333333333333 0.37691250000000004 0.16553750000000003 0.5304166666666668 0.30265416666666667 0.15358333333333335 0.13711666666666666 0.2763708333333334 0.30510833333333337 0.36052500000000004 0.4929708333333334 0.08407500000000001 0.18786250000000002 0.12761666666666668 0.3914 0.12761666666666668 0.5972333333333334 0 0.20583333333333337 -0.04354166666666667 0.40937083333333335 -0.12761666666666668 0.5972333333333334 -0.08415416666666668 0.18786250000000002 -0.2069416666666667 0.3558541666666667 -0.36052500000000004 0.4929708333333334 -0.15350416666666666 0.13711666666666666 -0.3342416666666667 0.24027083333333335 -0.5304166666666668 0.30265416666666667 -0.19617500000000002 0.062462500000000004 -0.403275 0.08272916666666667 -0.6078416666666667 0.05953333333333334ZM15.933083333333336 15.77482916666667h-2.7929208333333335v-4.496666666666667c0 -1.1264625000000001 -0.4003458333333334 -1.8619208333333337 -1.4151041666666668 -1.8619208333333337 -0.3140541666666667 0.0022958333333333333 -0.6198750000000001 0.10077916666666667 -0.8762166666666668 0.2822291666666667s-0.45093333333333335 0.43707916666666674 -0.5574916666666667 0.7325291666666668c-0.0729125 0.21881666666666666 -0.10450000000000001 0.4492708333333334 -0.0931 0.6795666666666668v4.655H7.40525V7.3866458333333345h2.793v1.1823541666666668c0.25365000000000004 -0.4402458333333334 0.6227250000000001 -0.8029875000000001 1.0672458333333334 -1.0490375 0.4446791666666667 -0.24605000000000005 0.9479416666666668 -0.3661458333333334 1.4557166666666668 -0.34746250000000006 1.862 0 3.2118708333333337 1.2009583333333333 3.2118708333333337 3.7798125000000002v4.822516666666667Z" fill="#FFFFFF" stroke-width="1"></path></svg>