<svg xmlns="http://www.w3.org/2000/svg" viewBox="-0.5 -0.5 20 20" fill="#000000" id="Envelope--Streamline-Phosphor" height="20" width="20"><desc>Envelope Streamline Icon: https://streamlinehq.com</desc><path d="M18.0938484375 2.338462109375H0.9061515625c-0.39551914062500004 0 -0.7161515625 0.320632421875 -0.7161515625 0.7161515625v12.174613671875c0 0.79106796875 0.6412425781250001 1.43234765625 1.4323105468750001 1.4323105468750001h15.75537890625c0.791016015625 -0.000037109375 1.4323105468750001 -0.6412945312499999 1.4323105468750001 -1.4323105468750001V3.054613671875c0 -0.39551914062500004 -0.320632421875 -0.7161515625 -0.7161515625 -0.7161515625ZM9.5 9.961024609375 2.7475632812499997 3.7707726562499997h13.504873437499999ZM6.87798515625 9.5l-5.255674609375 4.817026953125V4.6829730468749995Zm1.059903125 0.9712859375 1.074234765625 0.9891875c0.27391171875 0.25143828125 0.6946874999999999 0.25143828125 0.968591796875 0l1.074234765625 -0.9891875 5.192113671875 4.75794140625H2.7475632812499997ZM12.122014843750001 9.5l5.255674609375 -4.817925v9.63585Z" stroke-width="1"></path></svg>