<svg role="img" viewBox="-0.5 -0.5 20 20" xmlns="http://www.w3.org/2000/svg" id="Wordpress--Streamline-Simple-Icons" height="20" width="20"><desc>Wordpress Streamline Icon: https://streamlinehq.com</desc><title>WordPress</title><path d="M16.996291666666668 5.403125000000001c0.665 1.2167916666666667 1.0434166666666669 2.6125000000000003 1.0434166666666669 4.096875 0 3.150041666666667 -1.7068333333333336 5.902666666666668 -4.245708333333334 7.382291666666667l2.608541666666667 -7.542208333333334c0.48687500000000006 -1.2191666666666667 0.6491666666666667 -2.1937083333333334 0.6491666666666667 -3.059 0 -0.32062500000000005 -0.020583333333333335 -0.6175 -0.05541666666666668 -0.8787500000000001m-6.318291666666667 0.083125c0.5122083333333334 -0.02375 0.9753333333333334 -0.083125 0.9753333333333334 -0.083125 0.46075 -0.059375000000000004 0.4069166666666667 -0.7362500000000001 -0.053041666666666674 -0.7117083333333334 0 0 -1.389375 0.10687500000000001 -2.2800000000000002 0.10687500000000001 -0.8423333333333335 0 -2.25625 -0.11875000000000001 -2.25625 -0.11875000000000001 -0.463125 -0.02375 -0.5232916666666667 0.676875 -0.059375000000000004 0.700625 0 0 0.42750000000000005 0.04829166666666667 0.8906250000000001 0.07125000000000001l1.33 3.645625000000001 -1.8762500000000002 5.605L4.238583333333334 5.4625c0.5137916666666668 -0.02375 0.9769166666666668 -0.07916666666666668 0.9769166666666668 -0.07916666666666668 0.463125 -0.059375000000000004 0.40850000000000003 -0.7362500000000001 -0.05145833333333334 -0.7093333333333334 0 0 -1.3822500000000002 0.10925000000000001 -2.27525 0.10925000000000001 -0.15833333333333335 0 -0.34675000000000006 -0.006333333333333334 -0.54625 -0.011875C3.887875 2.4937500000000004 6.519375 0.9618750000000001 9.5 0.9618750000000001c2.223791666666667 0 4.247291666666667 0.8486666666666668 5.768083333333333 2.242791666666667 -0.03641666666666667 -0.0023750000000000004 -0.07204166666666667 -0.007125 -0.111625 -0.007125 -0.8391666666666668 0 -1.4345 0.7307083333333334 -1.4345 1.51525 0 0.7045833333333335 0.40612500000000007 1.3007083333333336 0.8391666666666668 2.0037083333333334 0.325375 0.5700000000000001 0.7045833333333335 1.3007083333333336 0.7045833333333335 2.3567916666666666 0 0.7243750000000001 -0.28025 1.5785833333333334 -0.6499583333333333 2.7542083333333336l-0.8510416666666667 2.8381250000000002 -3.0875000000000004 -9.19125 0.0007916666666666668 0.011083333333333334zM9.5 18.037333333333333c-0.838375 0 -1.6474583333333335 -0.12112500000000001 -2.4130000000000003 -0.34595833333333337l2.562625 -7.446416666666668 2.624375 7.193875c0.019000000000000003 0.041958333333333334 0.03958333333333334 0.07995833333333334 0.061750000000000006 0.11795833333333335 -0.8866666666666668 0.31112500000000004 -1.8406250000000004 0.482125 -2.83575 0.482125M0.9587083333333335 9.5c0 -1.2381666666666669 0.266 -2.4145833333333333 0.7402083333333335 -3.475416666666667L5.77125 17.18629166666667C2.924416666666667 15.80166666666667 0.9595 12.881208333333335 0.9587083333333335 9.5M9.5 0C4.2631250000000005 0 0 4.2631250000000005 0 9.5s4.2631250000000005 9.5 9.5 9.5 9.5 -4.2631250000000005 9.5 -9.5S14.736875 0 9.5 0" fill="#ffffff" stroke-width="1"></path></svg>