<svg xmlns="http://www.w3.org/2000/svg" fill="none" viewBox="-0.5 -0.5 18 18" id="Lock--Streamline-Outlined----Material-Symbols.svg" height="18" width="18"><desc>Lock Streamline Icon: https://streamlinehq.com</desc><path fill="#000000" d="M3.8958333333333335 15.583333333333334c-0.2921875 0 -0.542289375 -0.10405416666666667 -0.7503020833333334 -0.3121979166666667C2.937398125 15.063133333333333 2.8333333333333335 14.813020833333335 2.8333333333333335 14.520833333333334V6.835416666666667c0 -0.2921875 0.10406479166666667 -0.5423354166666667 0.3121979166666667 -0.7504791666666668 0.20801270833333335 -0.20800208333333337 0.4581145833333334 -0.31202083333333336 0.7503020833333334 -0.31202083333333336h1.2395833333333335v-1.7c0 -0.9308668750000001 0.32824166666666665 -1.724320625 0.9847604166666667 -2.3803541666666668C6.776554166666667 1.0364085416666668 7.570489583333333 0.7083333333333334 8.501947916666667 0.7083333333333334c0.9313520833333334 0 1.7246145833333335 0.32807520833333337 2.379822916666667 0.9842291666666667C11.536979166666669 2.3485960416666667 11.864583333333334 3.142049791666667 11.864583333333334 4.072916666666667v1.7H13.104166666666668c0.2921875 0 0.5423354166666667 0.10401875000000001 0.7504791666666668 0.31202083333333336 0.20800208333333337 0.20814375000000002 0.31202083333333336 0.4582916666666667 0.31202083333333336 0.7504791666666668V14.520833333333334c0 0.2921875 -0.10401875000000001 0.5423 -0.31202083333333336 0.7503020833333334C13.646502083333335 15.479279166666668 13.396354166666669 15.583333333333334 13.104166666666668 15.583333333333334H3.8958333333333335Zm0 -1.0625h9.208333333333334V6.835416666666667H3.8958333333333335V14.520833333333334Zm4.607177083333333 -2.479166666666667c0.37577083333333333 0 0.69646875 -0.13005000000000003 0.96209375 -0.3901145833333333s0.3984375 -0.5727583333333334 0.3984375 -0.9380104166666666c0 -0.3541666666666667 -0.1338041666666667 -0.67585625 -0.4014479166666667 -0.9651041666666668 -0.26764375 -0.28924791666666666 -0.5893333333333334 -0.4338541666666667 -0.9651041666666668 -0.4338541666666667 -0.37577083333333333 0 -0.69646875 0.14460625000000002 -0.96209375 0.4338541666666667 -0.265625 0.28924791666666666 -0.3984375 0.6138770833333334 -0.3984375 0.9739583333333334s0.1338041666666667 0.6699770833333334 0.4014479166666667 0.9296875c0.26764375 0.25971041666666667 0.5893333333333334 0.3895833333333334 0.9651041666666668 0.3895833333333334ZM6.197916666666667 5.772916666666667h4.604166666666667v-1.7c0 -0.6395081250000001 -0.22358541666666668 -1.1830335416666666 -0.6707916666666667 -1.6305833333333335C9.684085416666667 1.9946666666666666 9.141041666666666 1.7708333333333335 8.502125000000001 1.7708333333333335c-0.6389166666666667 0 -1.1826687500000002 0.22383333333333336 -1.6312916666666668 0.6715 -0.44862291666666665 0.4475497916666667 -0.6729166666666667 0.9910752083333334 -0.6729166666666667 1.6305833333333335v1.7Z" stroke-width="1"></path></svg>