<?xml version="1.0" encoding="UTF-8"?>
<svg xmlns="http://www.w3.org/2000/svg" xmlns:xlink="http://www.w3.org/1999/xlink" width="128px" height="128px" viewBox="0 0 128 128" version="1.1">
<g id="surface1">
<path style=" stroke:none;fill-rule:nonzero;fill:rgb(97.254902%,73.333333%,8.627451%);fill-opacity:1;" d="M 80.601562 35.226562 L 69.574219 16.023438 L 40.648438 16.023438 C 38.074219 16.023438 35.675781 17.398438 34.425781 19.648438 L 11.023438 60.425781 C 9.75 62.648438 9.75 65.351562 11.023438 67.601562 L 19.925781 83.125 L 30.925781 64.023438 L 47.476562 35.226562 Z M 80.601562 35.226562 "/>
<path style=" stroke:none;fill-rule:nonzero;fill:rgb(91.764706%,26.27451%,20.392157%);fill-opacity:1;" d="M 117.050781 60.425781 L 93.648438 19.648438 C 92.351562 17.425781 89.976562 16.023438 87.425781 16.023438 L 69.574219 16.023438 L 80.601562 35.226562 L 97.148438 64.023438 L 80.601562 92.824219 L 102.601562 92.824219 L 117.050781 67.601562 C 118.300781 65.375 118.300781 62.648438 117.050781 60.425781 "/>
<path style=" stroke:none;fill-rule:nonzero;fill:rgb(0%,45.490196%,73.72549%);fill-opacity:1;" d="M 102.574219 92.800781 L 47.425781 92.800781 L 30.875 64 L 19.875 83.101562 L 34.375 108.351562 C 35.675781 110.574219 38.050781 111.976562 40.601562 111.976562 L 87.375 111.976562 C 89.949219 111.976562 92.351562 110.601562 93.601562 108.351562 Z M 102.574219 92.800781 "/>
<path style=" stroke:none;fill-rule:nonzero;fill:rgb(88.627451%,89.019608%,89.411765%);fill-opacity:1;" d="M 80.550781 92.800781 L 47.398438 92.800781 L 30.875 64 L 47.425781 35.199219 L 80.550781 35.199219 L 97.148438 64 Z M 64 49.625 C 56.023438 49.625 49.601562 56.050781 49.601562 64.023438 C 49.601562 72 56.023438 78.425781 64 78.425781 C 71.976562 78.425781 78.398438 72 78.398438 64.023438 C 78.398438 56.050781 71.949219 49.625 64 49.625 Z M 64 49.625 "/>
</g>
</svg>
