<?xml version="1.0" encoding="UTF-8"?>
<svg xmlns="http://www.w3.org/2000/svg" xmlns:xlink="http://www.w3.org/1999/xlink" width="128px" height="128px" viewBox="0 0 128 128" version="1.1">
<g id="surface1">
<rect x="0" y="0" width="128" height="128" style="fill:rgb(96.862745%,87.45098%,11.764706%);fill-opacity:1;stroke:none;"/>
<path style=" stroke:none;fill-rule:nonzero;fill:rgb(0%,0%,0%);fill-opacity:1;" d="M 85.984375 100 C 88.5625 104.210938 91.917969 107.304688 97.847656 107.304688 C 102.832031 107.304688 106.015625 104.8125 106.015625 101.371094 C 106.015625 97.246094 102.746094 95.785156 97.257812 93.386719 L 94.253906 92.097656 C 85.574219 88.398438 79.808594 83.765625 79.808594 73.972656 C 79.808594 64.953125 86.679688 58.085938 97.421875 58.085938 C 105.070312 58.085938 110.566406 60.746094 114.53125 67.714844 L 105.164062 73.730469 C 103.101562 70.03125 100.875 68.574219 97.421875 68.574219 C 93.898438 68.574219 91.667969 70.808594 91.667969 73.730469 C 91.667969 77.339844 93.902344 78.800781 99.0625 81.035156 L 102.070312 82.324219 C 112.289062 86.703125 118.058594 91.171875 118.058594 101.21875 C 118.058594 112.046875 109.550781 117.980469 98.128906 117.980469 C 86.957031 117.980469 79.738281 112.65625 76.207031 105.679688 Z M 43.492188 101.042969 C 45.382812 104.394531 47.101562 107.230469 51.234375 107.230469 C 55.1875 107.230469 57.679688 105.683594 57.679688 99.671875 L 57.679688 58.773438 L 69.707031 58.773438 L 69.707031 99.832031 C 69.707031 112.289062 62.40625 117.957031 51.746094 117.957031 C 42.117188 117.957031 36.539062 112.972656 33.703125 106.96875 Z M 43.492188 101.042969 "/>
</g>
</svg>
