<?xml version="1.0" encoding="UTF-8"?>
<svg xmlns="http://www.w3.org/2000/svg" xmlns:xlink="http://www.w3.org/1999/xlink" width="128px" height="128px" viewBox="0 0 128 128" version="1.1">
<g id="surface1">
<path style=" stroke:none;fill-rule:nonzero;fill:rgb(14.901961%,30.196078%,89.411765%);fill-opacity:1;" d="M 17.839844 115.203125 L 7.566406 0 L 120.433594 0 L 110.148438 115.1875 L 63.929688 128 Z M 17.839844 115.203125 "/>
<path style=" stroke:none;fill-rule:nonzero;fill:rgb(16.078431%,39.607843%,94.509804%);fill-opacity:1;" d="M 101.347656 107.851562 L 110.132812 9.417969 L 64 9.417969 L 64 118.207031 Z M 101.347656 107.851562 "/>
<path style=" stroke:none;fill-rule:nonzero;fill:rgb(92.156863%,92.156863%,92.156863%);fill-opacity:1;" d="M 31.113281 52.148438 L 32.382812 66.277344 L 64 66.277344 L 64 52.148438 Z M 29.855469 37.679688 L 64 37.679688 L 64 23.550781 L 28.570312 23.550781 Z M 64 88.84375 L 63.9375 88.859375 L 48.203125 84.609375 L 47.195312 73.339844 L 33.011719 73.339844 L 34.992188 95.527344 L 63.933594 103.5625 L 64 103.542969 Z M 64 88.84375 "/>
<path style=" stroke:none;fill-rule:nonzero;fill:rgb(100%,100%,100%);fill-opacity:1;" d="M 63.953125 52.148438 L 63.953125 66.277344 L 81.351562 66.277344 L 79.710938 84.601562 L 63.953125 88.855469 L 63.953125 103.554688 L 92.917969 95.527344 L 93.128906 93.140625 L 96.449219 55.941406 L 96.792969 52.148438 L 99.34375 23.550781 L 63.953125 23.550781 L 63.953125 37.679688 L 83.859375 37.679688 L 82.574219 52.148438 Z M 63.953125 52.148438 "/>
</g>
</svg>
