<?xml version="1.0" encoding="UTF-8"?>
<svg xmlns="http://www.w3.org/2000/svg" xmlns:xlink="http://www.w3.org/1999/xlink" width="128px" height="128px" viewBox="0 0 128 96" version="1.1">
<g id="surface1">
<path style=" stroke:none;fill-rule:nonzero;fill:rgb(80.392157%,40.392157%,60%);fill-opacity:1;" d="M 110.148438 55.171875 C 105.683594 55.195312 101.804688 56.273438 98.558594 57.859375 C 97.367188 55.5 96.175781 53.398438 95.964844 51.855469 C 95.730469 50.054688 95.449219 48.957031 95.730469 46.808594 C 96.011719 44.660156 97.273438 41.597656 97.25 41.363281 C 97.226562 41.128906 96.96875 40.03125 94.398438 40.007812 C 91.828125 39.984375 89.609375 40.5 89.351562 41.175781 C 89.09375 41.855469 88.605469 43.398438 88.277344 44.984375 C 87.832031 47.324219 83.136719 55.664062 80.449219 60.035156 C 79.585938 58.328125 78.835938 56.832031 78.675781 55.640625 C 78.441406 53.839844 78.160156 52.742188 78.441406 50.59375 C 78.71875 48.445312 79.984375 45.382812 79.960938 45.148438 C 79.9375 44.914062 79.679688 43.816406 77.109375 43.792969 C 74.539062 43.769531 72.320312 44.285156 72.0625 44.960938 C 71.804688 45.640625 71.523438 47.230469 70.988281 48.769531 C 70.449219 50.3125 64.210938 64.238281 62.574219 67.839844 C 61.734375 69.683594 61.007812 71.15625 60.496094 72.160156 C 60.496094 72.160156 60.472656 72.230469 60.402344 72.347656 C 59.957031 73.210938 59.699219 73.679688 59.699219 73.679688 C 59.699219 73.679688 59.699219 73.679688 59.699219 73.703125 C 59.351562 74.332031 58.976562 74.917969 58.789062 74.917969 C 58.648438 74.917969 58.390625 73.234375 58.835938 70.945312 C 59.769531 66.109375 61.992188 58.585938 61.96875 58.328125 C 61.96875 58.1875 62.386719 56.878906 60.519531 56.203125 C 58.695312 55.523438 58.042969 56.644531 57.878906 56.644531 C 57.714844 56.644531 57.597656 57.042969 57.597656 57.042969 C 57.597656 57.042969 59.628906 48.585938 53.71875 48.585938 C 50.027344 48.585938 44.933594 52.625 42.410156 56.273438 C 40.820312 57.136719 37.433594 58.980469 33.8125 60.96875 C 32.433594 61.738281 31.007812 62.511719 29.675781 63.234375 C 29.582031 63.140625 29.488281 63.023438 29.394531 62.929688 C 22.246094 55.289062 9.019531 49.894531 9.582031 39.636719 C 9.789062 35.894531 11.074219 26.082031 34.980469 14.164062 C 54.652344 4.46875 70.308594 7.15625 73.019531 13.113281 C 76.898438 21.621094 64.632812 37.414062 44.300781 39.703125 C 36.542969 40.570312 32.480469 37.578125 31.449219 36.457031 C 30.375 35.289062 30.210938 35.21875 29.816406 35.453125 C 29.160156 35.804688 29.582031 36.855469 29.816406 37.460938 C 30.421875 39.050781 32.921875 41.855469 37.152344 43.234375 C 40.890625 44.449219 49.980469 45.125 60.984375 40.875 C 73.300781 36.105469 82.925781 22.859375 80.097656 11.757812 C 77.273438 0.496094 58.578125 -3.21875 40.890625 3.066406 C 30.375 6.804688 18.972656 12.695312 10.773438 20.359375 C 1.027344 29.46875 -0.515625 37.390625 0.117188 40.710938 C 2.382812 52.484375 18.621094 60.152344 25.117188 65.828125 C 24.792969 66.015625 24.488281 66.179688 24.230469 66.320312 C 20.984375 67.929688 8.597656 74.402344 5.515625 81.25 C 2.007812 89.007812 6.074219 94.570312 8.761719 95.316406 C 17.105469 97.628906 25.679688 93.46875 30.28125 86.601562 C 34.886719 79.730469 34.324219 70.804688 32.199219 66.714844 C 32.175781 66.667969 32.152344 66.621094 32.105469 66.574219 C 32.945312 66.085938 33.8125 65.570312 34.652344 65.082031 C 36.3125 64.097656 37.945312 63.1875 39.347656 62.441406 C 38.554688 64.613281 37.96875 67.207031 37.691406 70.945312 C 37.339844 75.339844 39.136719 81.039062 41.5 83.28125 C 42.550781 84.265625 43.789062 84.289062 44.582031 84.289062 C 47.339844 84.289062 48.578125 81.996094 49.957031 79.289062 C 51.640625 75.96875 53.15625 72.113281 53.15625 72.113281 C 53.15625 72.113281 51.265625 82.535156 56.40625 82.535156 C 58.273438 82.535156 60.167969 80.105469 61.007812 78.867188 C 61.007812 78.890625 61.007812 78.890625 61.007812 78.890625 C 61.007812 78.890625 61.054688 78.820312 61.148438 78.65625 C 61.335938 78.351562 61.453125 78.164062 61.453125 78.164062 C 61.453125 78.164062 61.453125 78.140625 61.453125 78.117188 C 62.199219 76.808594 63.882812 73.84375 66.382812 68.914062 C 69.609375 62.558594 72.714844 54.613281 72.714844 54.613281 C 72.714844 54.613281 72.996094 56.550781 73.953125 59.777344 C 74.515625 61.667969 75.683594 63.75 76.617188 65.757812 C 75.871094 66.808594 75.402344 67.394531 75.402344 67.394531 C 75.402344 67.394531 75.402344 67.394531 75.425781 67.417969 C 74.820312 68.210938 74.164062 69.078125 73.441406 69.917969 C 70.894531 72.957031 67.855469 76.4375 67.433594 77.441406 C 66.945312 78.632812 67.0625 79.496094 67.996094 80.199219 C 68.671875 80.710938 69.886719 80.78125 71.125 80.710938 C 73.417969 80.550781 75.027344 79.988281 75.824219 79.636719 C 77.0625 79.195312 78.511719 78.515625 79.867188 77.511719 C 82.367188 75.664062 83.882812 73.023438 83.746094 69.542969 C 83.675781 67.628906 83.042969 65.710938 82.273438 63.914062 C 82.507812 63.585938 82.714844 63.257812 82.949219 62.929688 C 86.898438 57.160156 89.960938 50.828125 89.960938 50.828125 C 89.960938 50.828125 90.238281 52.765625 91.199219 55.992188 C 91.664062 57.625 92.625 59.402344 93.464844 61.132812 C 89.75 64.144531 87.460938 67.652344 86.640625 69.941406 C 85.167969 74.195312 86.316406 76.109375 88.488281 76.554688 C 89.46875 76.765625 90.871094 76.296875 91.898438 75.851562 C 93.207031 75.433594 94.75 74.707031 96.222656 73.632812 C 98.722656 71.785156 101.128906 69.214844 100.988281 65.734375 C 100.917969 64.144531 100.496094 62.582031 99.914062 61.0625 C 103.066406 59.753906 107.132812 59.027344 112.320312 59.636719 C 123.445312 60.945312 125.640625 67.882812 125.21875 70.804688 C 124.800781 73.726562 122.460938 75.316406 121.691406 75.804688 C 120.921875 76.296875 120.664062 76.460938 120.734375 76.808594 C 120.828125 77.324219 121.199219 77.300781 121.855469 77.207031 C 122.765625 77.042969 127.695312 74.847656 127.90625 69.472656 C 128.257812 62.605469 121.714844 55.101562 110.148438 55.171875 Z M 24.347656 84.101562 C 20.65625 88.121094 15.515625 89.636719 13.296875 88.351562 C 10.910156 86.976562 11.847656 81.039062 16.378906 76.789062 C 19.136719 74.195312 22.6875 71.785156 25.046875 70.316406 C 25.585938 69.988281 26.378906 69.519531 27.339844 68.9375 C 27.503906 68.84375 27.59375 68.796875 27.59375 68.796875 C 27.78125 68.679688 27.96875 68.5625 28.15625 68.445312 C 29.816406 74.519531 28.226562 79.871094 24.347656 84.101562 Z M 51.21875 65.828125 C 49.933594 68.960938 47.246094 76.972656 45.609375 76.53125 C 44.207031 76.15625 43.34375 70.082031 45.332031 64.074219 C 46.335938 61.0625 48.460938 57.464844 49.699219 56.0625 C 51.710938 53.816406 53.929688 53.070312 54.464844 53.980469 C 55.144531 55.171875 52.011719 63.867188 51.21875 65.828125 Z M 73.394531 76.4375 C 72.855469 76.71875 72.339844 76.902344 72.109375 76.765625 C 71.945312 76.671875 72.339844 76.296875 72.339844 76.296875 C 72.339844 76.296875 75.121094 73.304688 76.21875 71.949219 C 76.851562 71.15625 77.597656 70.222656 78.394531 69.167969 C 78.394531 69.261719 78.394531 69.378906 78.394531 69.472656 C 78.394531 73.046875 74.933594 75.457031 73.394531 76.4375 Z M 90.496094 72.535156 C 90.101562 72.253906 90.171875 71.320312 91.503906 68.398438 C 92.015625 67.253906 93.230469 65.335938 95.3125 63.492188 C 95.542969 64.238281 95.707031 64.964844 95.683594 65.640625 C 95.660156 70.152344 92.4375 71.832031 90.496094 72.535156 Z M 90.496094 72.535156 "/>
</g>
</svg>
